<?xml version="1.0" encoding="utf-8"?>
<!-- Generator: Adobe Illustrator 19.0.0, SVG Export Plug-In . SVG Version: 6.00 Build 0)  -->
<svg version="1.1" id="隔离模式" xmlns="http://www.w3.org/2000/svg" xmlns:xlink="http://www.w3.org/1999/xlink" x="0px"
	 y="0px" viewBox="0 0 190 190" style="enable-background:new 0 0 190 190;" xml:space="preserve">
<style type="text/css">
	.st0{fill:none;stroke:#000000;stroke-width:1.5;stroke-miterlimit:10;}
</style>
	<g>
		<circle cx="9" cy="175.3" r="5.7"/>
		<circle cx="96.5" cy="23.3" r="5.7"/>
		<circle cx="184.3" cy="177.7" r="5.7"/>
		<circle cx="26.9" cy="119.3" r="5.7"/>
		<path d="M177.8,133c0,3.1-2.5,5.7-5.7,5.7c-3.1,0-5.7-2.5-5.7-5.7c0-3.1,2.5-5.7,5.7-5.7C175.3,127.4,177.8,129.9,177.8,133z"/>
		<path class="st0" d="M9,177.1c0,0,30.9-142.9,87.5-153.8s87.8,154.5,87.8,154.5"/>
	</g>

	<g>
		<circle cx="5.7" cy="82.3" r="5.7"/>
		<circle cx="40.5" cy="12.3" r="5.7"/>
		<circle cx="184.3" cy="106.4" r="5.7"/>
		<circle cx="109.1" cy="125.1" r="5.7"/>
		<path d="M17.2,57.2c0,3.1-2.5,5.7-5.7,5.7c-3.1,0-5.7-2.5-5.7-5.7c0-3.1,2.5-5.7,5.7-5.7C14.6,51.6,17.2,54.1,17.2,57.2z"/>
		<path d="M74.3,41c0,3.1-2.5,5.7-5.7,5.7c-3.1,0-5.7-2.5-5.7-5.7c0-3.1,2.5-5.7,5.7-5.7C71.8,35.3,74.3,37.8,74.3,41z"/>
		<path class="st0" d="M5.7,82.3c0,0,10.4-68.5,32.9-71.7s70.6,114.5,70.6,114.5s36.7,75.4,76.8-17.8"/>
	</g>

	<g>
		<circle cx="65.7" cy="175.3" r="5.7"/>
		<circle cx="5.7" cy="24.2" r="5.7"/>
		<circle cx="141.9" cy="57.2" r="5.7"/>
		<circle cx="179.9" cy="60.2" r="5.7"/>
		<path d="M167.1,41c0,3.1-2.5,5.7-5.7,5.7c-3.1,0-5.7-2.5-5.7-5.7c0-3.1,2.5-5.7,5.7-5.7C164.6,35.3,167.1,37.8,167.1,41z"/>
		<path class="st0" d="M5.7,24.2c0,0,20,151.3,59.3,152.9c39.3,1.6,61.5-133.8,95.9-138.1c5.8-0.7,18.9,22.2,18.9,22.2"/>
	</g>
</svg>
