<!--?xml version="1.0" encoding="utf-8"?-->
<!-- Generator: Adobe Illustrator 19.0.0, SVG Export Plug-In . SVG Version: 6.00 Build 0)  -->
<svg version="1.1" id="隔离模式" xmlns="http://www.w3.org/2000/svg" xmlns:xlink="http://www.w3.org/1999/xlink" x="0px" y="0px" viewBox="-680 412 78 78" xml:space="preserve">
<style type="text/css">
	.st0{fill:none;stroke:#244f7f;stroke-width:0.5;stroke-miterlimit:10;}
	.st1{fill:#244f7f;transform-origin: 50% 50%;}
</style>
<g>
	<g class="p">
		<path class="st1" width="70.7" height="1.4" d="M-677.3 477.8 L-606.5999999999999 477.8 L-606.5999999999999 479.2 L-677.3 479.2 Z"></path>
		<path class="st1" width="1.4" height="53.8" d="M-677.6 425.4 L-676.2 425.4 L-676.2 479.2 L-677.6 479.2 Z"></path>
		<path class="st1" d="M-602.4,478.5L-604.8,477.3L-607.3,476.1L-607.3,478.5L-607.3,481L-604.8,479.7Z"></path>
		<path class="st1" d="M-676.9,421L-675.6,423.7L-674.3,426.3L-676.9,426.3L-679.6,426.3L-678.3,423.7Z"></path>
	</g>
	<g>
	<path class="st0 line1" d="M-676.3,455.9L-654.3,440.7L-639.8,451.8L-632.1,433.2L-613.4,451.1L-605.1,438.2"></path>
	<path class="st0 line2" d="M-675.6,477.8L-666.6,459.8L-635.3,466.8L-620,461.2L-604.8,463.9"></path>
	</g>
	<g>
		<circle class="st1 ball" cx="-654.3" cy="440.7" r="2.2"/>
		<circle class="st1 ball" cx="-639.8" cy="451.8" r="2.2"/>
		<circle class="st1 ball" cx="-632.1" cy="433.2" r="2.2"/>
		<circle class="st1 ball" cx="-613.4" cy="451.1" r="2.2"/>
		<circle class="st1 ball" cx="-635.3" cy="466.8" r="2.2"/>
		<circle class="st1 ball" cx="-666.7" cy="460.1" r="2.2"/>
		<circle class="st1 ball" cx="-619.8" cy="461.2" r="2.2"/>
	</g>
</g>
<style>
	.line1 { stroke-dasharray: 107 109; stroke-dashoffset: 108; animation: ZLHdVNVB_draw .8s ease-in 9s forwards; }
	.line2 { stroke-dasharray: 84 86; stroke-dashoffset: 85; animation: ZLHdVNVB_draw .8s ease-in 9s forwards; }
	.ball{opacity: 0;animation: zoomIn 1s forwards 9.6s;}
	.p{fill:#244f7f;opacity:0; animation: fadein .2s ease-in 8.4s forwards;}
	@keyframes ZLHdVNVB_draw {
		100% { stroke-dashoffset: 0; }
	}
	@keyframes ZLHdVNVB_fade {
		0% { stroke-opacity: 1; }
		92.3076923076923% { stroke-opacity: 1; }
		100% { stroke-opacity: 0; }
	}
	@keyframes zoomIn {
		0% {
			opacity: 0;
			transform: scale(0);
		}

		60% {
			opacity: 1;
			transform: scale(1.3);
		}

		80% {
			opacity: 1;
			transform: scale(.7);
		}

		100% {
			opacity: 1;
			transform: scale(1);
		}
	}
	@keyframes fadein{
		0% { opacity: 0; }
		100% { opacity: 1; }
	}
</style>
</svg>
