<?xml version="1.0" encoding="utf-8"?>
<!-- Generator: Adobe Illustrator 19.0.0, SVG Export Plug-In . SVG Version: 6.00 Build 0)  -->
<svg version="1.1" id="Layer_1" xmlns="http://www.w3.org/2000/svg" xmlns:xlink="http://www.w3.org/1999/xlink" x="0px" y="0px"
	 viewBox="-579 311 280 280" style="enable-background:new -579 311 280 280;" xml:space="preserve">
<g class="all">
	<g class="g0">
		<path d="M-369,570.6h-140l-70-121.2l70-121.2h140l70,121.2L-369,570.6z M-507.8,568.6h137.7l68.8-119.2l-68.9-119.2h-137.6
			l-68.9,119.2L-507.8,568.6z"/>
		<polygon points="-439,450.4 -508.9,329.4 -508,328.9 -439,448.4 -370,328.9 -369.1,329.4"/>
		<rect x="-577.8" y="448.9" width="277.7" height="1"/>
		<polygon points="-370,569.8 -439,450.4 -508,569.8 -508.9,569.3 -439,448.4 -369.1,569.3"/>
	</g>
	<g class="g1">
		<path d="M-398.1,520.2h-81.8l-40.9-70.8l40.9-70.8h81.8l40.9,70.8L-398.1,520.2z M-479.3,519.2h80.6l40.3-69.8l-40.3-69.8h-80.6
			l-40.3,69.8L-479.3,519.2z"/>
	</g>
	<g class="g2">
		<path d="M-379.1,569.2l-110.8-15.5l-0.2-0.3l-66.3-88l0.6-0.6l73.7-74.4l85.7,1.4l56.8,73.5l-0.2,0.5L-379.1,569.2z M-488.9,551.9
			l108.4,15.1l38.5-101.3l-55.6-71.9l-83.9-1.4l-72.5,73.2L-488.9,551.9z"/>
		<circle cx="-340.8" cy="465.6" r="5.7"/>
		<circle cx="-489.5" cy="552.8" r="5.7"/>
		<circle cx="-380.8" cy="568.2" r="5.7"/>
		<circle cx="-555.2" cy="465.6" r="5.7"/>
	</g>
	<g class="g3">
		<path d="M-472.2,523.3l-0.3-0.3l-54.2-57.2l0.2-0.5l30-99.3l108.8,11.5l11.7,88.3l-32.2,52.9L-472.2,523.3z M-524.5,465.4
			l53.1,56.1l62-4.6l31.3-51.5l-11.4-86.1l-105.7-11.1L-524.5,465.4z"/>
		<circle cx="-389.1" cy="380.1" r="5.7"/>
		<circle cx="-495.2" cy="368.8" r="5.7"/>
		<circle cx="-525.6" cy="465.6" r="5.7"/>
		<circle cx="-471.8" cy="522.3" r="5.7"/>
		<circle cx="-409.1" cy="516.8" r="5.7"/>
		<circle cx="-377.2" cy="465.6" r="5.7"/>
	</g>
</g>
<style>
	.all{fill: #2a5488;}
	.g0{
		transform: scale(0);
		animation: scale .5s forwards 5s;
	}
	.g1{
		transform: scale(0);
		animation: scale .5s forwards 5.5s;
	}
	.g2{
		transform: scale(0);
		animation: scale .5s forwards 6s;
	}
	.g3{
		transform: scale(0);
		animation: scale .7s forwards 6.5s;
	}

	@keyframes scale {
		0%{transform: scale(0); transform-origin: 50% 50%;}
		100%{transform: scale(1); transform-origin: 50% 50%;}
	}
</style>
</svg>
