<!--?xml version="1.0" encoding="utf-8"?-->
<!-- Generator: Adobe Illustrator 19.0.0, SVG Export Plug-In . SVG Version: 6.00 Build 0)  -->
<svg version="1.1" id="图层_1" xmlns="http://www.w3.org/2000/svg" xmlns:xlink="http://www.w3.org/1999/xlink" x="0px" y="0px" viewBox="-418 904 220 55" xml:space="preserve">
<style type="text/css">
	.st0{fill:none; stroke:#3AA6FA; stroke-width:1;}
</style>
<g>
	<g>
		<path class="st0 vFOqUOWx_0" d="M-203.9,941.2c0-0.1-0.1-0.2-0.2-0.2h-4.7c-1.8,0-3.5-2.1-3.9-2.8l-10.3-20.3c-2.1-3.9-6.1-5.3-8.9-5.3
			c-8.6,0-12.7,8.1-15.7,15c-0.7,1.7-2.5,5-2.6,5.1c-6.5,10.9-15,15.9-27,15.9c-9.6,0-17-2.5-20.6-5c-9.2-6.1-19.9-27.1-19.9-27.1
			c-2-4.8-6.7-5-8.7-5c-0.1,0-0.3,0-0.4,0c-4.1,0.5-6.5,3.9-7.6,5.7c0,0-8.2,16.1-11,21.4c-0.5,0.9-1.6,3.2-5,3.2
			c-1.1,0-2.5-0.4-2.5-1.8v-20.3c0-0.2,0-0.6-0.1-0.8c-0.6-2.6-3.4-7-10.6-7c-3.6,0-6,1.1-7.8,3.2c-1.8,2.1-1.8,4.6-1.8,5.3v18.2
			c0,0,0,0.3-0.4,0.7c-0.7,0.7-2.2,1.1-4.3,1.1c-3.9,0-4.6-1.4-4.6-2.1v-17.1c0-6.4-6.4-8.9-10-8.9c-3.4,0-5.8,0.9-7.6,2.6
			c-0.1,0.1-0.3,0.3-0.4,0.4c-1.9,2.4-1.9,5.2-1.9,5.9v16.4c0,1.8-0.4,3.2-1.1,3.9s-1.8,0.7-1.8,0.7h-3.4c-0.1,0-0.2,0.1-0.2,0.2
			v5.9c0,0.1,0.1,0.2,0.2,0.2h3c1.1,0,3.9,0,6.4-2.5c2.1-2.1,3.2-5,3.2-8.9c0,0,0-12.3,0-16.4c0-1.3,1-2.3,3.7-2.2
			c1,0,3.5,0.5,3.5,2.6v17.4c0,2.4,2.1,8.5,11,8.5c3.9,0,6.8-1,8.9-3.2c2.1-2.2,2.1-4.6,2.1-5v-17.6c0-0.2,0-0.9,0.3-1.2
			c0.4-0.7,1.4-1.5,3.3-1.5c3.1,0,4.1,2,4.1,2.8c0,4.8,0,19.2,0,19.2c0,0.4,0,3.1,1.9,5.5c0.1,0.1,0.2,0.3,0.3,0.4
			c1.2,1.1,3.4,2.3,6.8,2.3c6.1,0,9.6-4.3,10.7-6.8l11-21.4c0.3-0.7,1.1-1.9,2.5-2.1c1-0.1,2.5,0,3.2,1.4
			c0.4,0.7,11.6,22.2,22.3,29.3c5.4,3.8,14.4,6,23.7,6c14.2,0,24.5-6.6,32.7-19.4c0.9-1.4,2.2-4.1,2.8-5.4
			c3.2-6.8,4.7-11.5,9.5-11.5c0.7,0,2.2,0.2,3.3,2l10.3,20.3c0.4,0.8,3.6,6.1,9.3,6.1h4.8c0.1,0,0.2-0.1,0.2-0.2V941.2z"></path>
	</g>
</g>
<path class="st0 vFOqUOWx_1" d="M-319.5,934.9c0,2.8-2.5,5.3-5.3,5.3c-2.8,0-5.3-2.5-5.3-5.3c0-2.8,2.5-5.3,5.3-5.3
	C-322,929.5-319.5,932-319.5,934.9 M-226.6,934.9c0,2.8-2.5,5.3-5.3,5.3c-2.8,0-5.3-2.5-5.3-5.3c0-2.8,2.5-5.3,5.3-5.3
	C-229.1,929.6-226.6,932-226.6,934.9z"></path>
<g>
	<g>
		<path class="st0 vFOqUOWx_2" d="M-259,943c-1.4,1.1-2.6,1.8-3.5,2.2v-6.4c0-1.1-0.1-1.6-0.6-2.3c-0.6-0.8-1.6-0.9-2.2-0.9c-6.5,0-26,0-26,0
			c-1.1,0-5.3,0-8.5-2.8c-2.5-2.1-3.6-5-3.6-8.9c0-3.9,1.1-6.8,3.6-8.9c3.2-2.8,7.5-2.8,8.5-2.8h31.7v6.1h-32c0,0-2.5,0-3.9,1.1
			c-1.1,0.7-1.4,2.1-1.4,4.3c0,2.1,0.4,3.6,1.4,4.3c1.4,1.4,3.6,1.1,3.6,1.1h26c0.7,0,4.3,0,6.8,2.5c1.4,1.1,2.8,3.6,2.8,7.1v1.9
			C-257.2,941.5-257.8,942.1-259,943z"></path>
	</g>
</g>
<style>.vFOqUOWx_0{stroke-dasharray:747 749;stroke-dashoffset:748;animation:vFOqUOWx_draw_0 2400ms linear 0ms infinite,vFOqUOWx_fade 2400ms linear 0ms infinite;}.vFOqUOWx_1{stroke-dasharray:67 69;stroke-dashoffset:68;animation:vFOqUOWx_draw_1 2400ms linear 0ms infinite,vFOqUOWx_fade 2400ms linear 0ms infinite;}.vFOqUOWx_2{stroke-dasharray:214 216;stroke-dashoffset:215;animation:vFOqUOWx_draw_2 2400ms linear 0ms infinite,vFOqUOWx_fade 2400ms linear 0ms infinite;}@keyframes vFOqUOWx_draw{100%{stroke-dashoffset:0;}}@keyframes vFOqUOWx_fade{0%{stroke-opacity:1;}83.33333333333334%{stroke-opacity:1;}100%{stroke-opacity:0;}}@keyframes vFOqUOWx_draw_0{0%{stroke-dashoffset: 748}83.33333333333334%{ stroke-dashoffset: 0;}100%{ stroke-dashoffset: 0;}}@keyframes vFOqUOWx_draw_1{0%{stroke-dashoffset: 68}83.33333333333334%{ stroke-dashoffset: 0;}100%{ stroke-dashoffset: 0;}}@keyframes vFOqUOWx_draw_2{0%{stroke-dashoffset: 215}83.33333333333334%{ stroke-dashoffset: 0;}100%{ stroke-dashoffset: 0;}}</style></svg>
